<?xml version="1.0" standalone="no"?>
<!DOCTYPE svg PUBLIC "-//W3C//DTD SVG 20010904//EN"
 "http://www.w3.org/TR/2001/REC-SVG-20010904/DTD/svg10.dtd">
<svg version="1.0" xmlns="http://www.w3.org/2000/svg"
 width="512.000000pt" height="512.000000pt" viewBox="0 0 512.000000 512.000000"
 preserveAspectRatio="xMidYMid meet">
<metadata>
Created by potrace 1.14, written by Peter Selinger 2001-2017
</metadata>
<g transform="translate(0.000000,512.000000) scale(0.100000,-0.100000)"
fill="#000000" stroke="none">
<path d="M2435 4005 c-265 -36 -508 -155 -706 -343 -50 -47 -120 -125 -156
-174 l-65 -87 -96 -3 -96 -3 -77 -360 c-166 -780 -229 -1080 -229 -1087 0 -5
113 -8 250 -8 l251 0 6 30 6 30 45 -62 c106 -148 332 -334 497 -408 214 -97
301 -115 555 -115 268 0 375 24 597 132 l92 46 42 -37 c24 -20 50 -36 58 -36
9 0 41 17 71 38 71 48 289 213 295 223 3 4 -12 13 -32 19 -21 7 -59 21 -85 32
l-47 20 54 69 c30 37 55 72 55 78 0 6 31 41 69 78 198 196 301 460 301 768 0
179 -32 289 -113 394 -47 61 -120 114 -188 136 -39 13 -53 26 -93 85 -167 243
-451 444 -728 515 -176 44 -358 55 -533 30z m490 -108 c213 -60 375 -149 534
-293 57 -52 151 -159 151 -173 0 -5 -73 -11 -162 -14 -180 -5 -270 -23 -381
-76 -87 -42 -187 -120 -247 -193 -65 -80 -144 -239 -170 -343 -43 -172 -45
-418 -4 -555 49 -166 177 -281 344 -310 36 -6 74 -13 85 -15 14 -3 27 -20 39
-55 10 -27 42 -86 72 -131 30 -45 54 -83 52 -84 -2 -2 -39 -21 -83 -43 -347
-173 -792 -159 -1133 37 -172 99 -303 220 -412 383 -50 75 -58 92 -53 120 3
18 24 121 47 228 l41 195 138 3 c129 2 138 1 133 -15 -3 -10 -19 -83 -35 -163
-47 -229 -91 -434 -96 -447 -3 -10 49 -13 240 -13 135 0 248 0 253 -1 8 -1 25
65 86 351 25 118 78 361 117 540 39 179 79 368 89 420 10 52 21 107 25 123 l7
27 -254 0 -254 0 -53 -252 c-29 -139 -60 -281 -68 -315 l-15 -63 -134 0 c-74
0 -134 3 -134 6 0 3 20 98 45 212 45 209 85 402 85 409 0 1 -45 3 -100 3 -55
0 -100 4 -100 8 0 15 124 154 189 214 161 146 393 258 616 298 28 5 131 7 230
5 156 -2 192 -6 270 -28z m616 -663 c74 -67 39 -485 -66 -801 -44 -133 -93
-228 -147 -288 -41 -45 -48 -49 -94 -49 -31 -1 -48 3 -47 10 1 7 -5 11 -15 10
-22 -1 -50 103 -51 189 -2 130 34 352 86 530 88 307 238 485 334 399z m33
-1286 c-4 -7 -14 -21 -22 -31 -14 -16 -16 -16 -34 0 -19 17 -19 18 14 29 44
16 51 16 42 2z"/>
</g>
</svg>
